<?xml version="1.0" encoding="utf-8"?>
<?xml-stylesheet type="text/xsl" href="rss1.xsl"?>
<rss version="2.0" xmlns:atom="http://www.w3.org/2005/Atom" xmlns:content="http://purl.org/rss/1.0/modules/content/" xmlns:dc="http://purl.org/dc/elements/1.1/" xmlns:media="http://search.yahoo.com/mrss/">
<channel>
 <title>Getty</title>
 <link>http://www.gettyimg.com/</link>
 <atom:link href="http://www.gettyimg.com/" rel="self" type="application/rss+xml" />

 
                <item>
                <title><![CDATA[【Music Videos】NSYNC - U Drive Me Crazy (5.1) (Clean)]]></title>
                <link><![CDATA[https://sharemania.us/threads/nsync-u-drive-me-crazy-5-1-clean.236164/]]></link>
                <description><![CDATA[<article>
<blockquote class="messageText SelectQuoteContainer ugc baseHtml">
<img src="https://i.ibb.co/7g42VX1/10-N-Sync-U-Drive-Me-Crazy-5-1-VOB-thumbs-2024-01-21-00-32-48.jpg" class="bbCodeImage LbImage" alt="[​IMG]" data-url="https://i.ibb.co/7g42VX1/10-N-Sync-U-Drive-Me-Crazy-5-1-VOB-thumbs-2024-01-21-00-32-48.jpg" style=""> <br>
<br>
<div class="ToggleTriggerAnchor bbCodeSpoilerContainer">
<button type="button" class="button bbCodeSpoilerButton ToggleTrigger Tooltip JsOnly" data-target="> .SpoilerTarget"><span>Spoiler: <span class="SpoilerTitle">MediaInfo</span></span></button>
<div class="SpoilerTarget bbCodeSpoilerText">'N Sync-U Drive Me Crazy (5.1).VOB<br>
Format : MPEG-PS<br>
File size : 207 MiB<br>
Duration : 4 min 48 s<br>
Overall bit rate mode : Variable<br>
Overall bit rate : 6 006 kb/s<br>
Frame rate : 29.970 FPS<br>
<br>
Video<br>
ID : 224 (0xE0)<br>
Format : MPEG Video<br>
Format version : Version 2<br>
Format profile : Main@Main<br>
Format settings : CustomMatrix / BVOP<br>
Format settings, BVOP : Yes<br>
Format settings, Matrix : Custom<br>
Format settings, GOP : M=3, N=15<br>
Format settings, picture st : Frame<br>
Duration : 4 min 48 s<br>
Bit rate mode : Variable<br>
Bit rate : 5 438 kb/s<br>
Width : 720 pixels<br>
Height : 480 pixels<br>
Display aspect ratio : 4:3<br>
Frame rate : 29.970 (30000/1001) FPS<br>
Standard : NTSC<br>
Color space : YUV<br>
Chroma subsampling : 4:2:0<br>
Bit depth : 8 bits<br>
Scan type : Interlaced<br>
Scan order : Top Field First<br>
Compression mode : Lossy<br>
Bits/(Pixel*Frame) : 0.525<br>
Time code of first frame : 09:59:59:10<br>
Time code source : Group of pictures header<br>
GOP, Open/Closed : Open<br>
GOP, Open/Closed of first f : Closed<br>
Stream size : 187 MiB (91%)<br>
<br>
Audio<br>
ID : 189 (0xBD)-128 (0x80)<br>
Format : AC-3<br>
Format/Info : Audio Coding 3<br>
Commercial name : Dolby Digital<br>
Muxing mode : DVD-Video<br>
Duration : 4 min 48 s<br>
Bit rate mode : Constant<br>
Bit rate : 448 kb/s<br>
Channel(s) : 6 channels<br>
Channel layout : L R C LFE Ls Rs<br>
Sampling rate : 48.0 kHz<br>
Frame rate : 31.250 FPS (1536 SPF)<br>
Compression mode : Lossy<br>
Stream size : 15.4 MiB (7%)<br>
Service kind : Complete Main<br>
<br>
Text<br>
ID : 189 (0xBD)-32 (0x20)<br>
Format : RLE<br>
Format/Info : Run-length encoding<br>
Muxing mode : DVD-Video</div>
</div><br>
<div class="bbCodeBlock bbCodeVfcHH HiddenContent">
<div class="attribution type">Hidden Content:</div>
<blockquote>You must reply before you can see the hidden data contained here.</blockquote>
</div>
<div class="messageTextEndMarker">&nbsp;</div>
</blockquote>
</article>]]></description>
                <author><![CDATA[DJ-RoGeRs-BS]]></author>
                </item>

                
                <item>
                <title><![CDATA[【Albums (lossy)】Would someone be so kind as to share this album with me in Dolby Atmos? I would be very grateful]]></title>
                <link><![CDATA[https://sharemania.us/threads/would-someone-be-so-kind-as-to-share-this-album-with-me-in-dolby-atmos-i-would-be-very-grateful.236163/]]></link>
                <description><![CDATA[<article>
<blockquote class="messageText SelectQuoteContainer ugc baseHtml">
Would someone be so kind as to share this album with me in Dolby Atmos? I would be very grateful<br>
<br>
<a href="https://music.apple.com/sv/album/legendaddy-deluxe-video-album/1616751139?ls" target="_blank" class="externalLink" rel="nofollow">https://music.apple.com/sv/album/legendaddy-deluxe-video-album/1616751139?ls</a>
<div class="messageTextEndMarker">&nbsp;</div>
</blockquote>
</article>]]></description>
                <author><![CDATA[Avelarsin]]></author>
                </item>

                </channel></rss>